HIERARCHY
ROOT joint_0
{
	OFFSET 0.000000 0.000000 0.000000
	CHANNELS 6 Xposition Yposition Zposition Zrotation Yrotation Xrotation 
	JOINT joint_1
	{
		OFFSET 13.542969 -4.074463 123.986084
		CHANNELS 3 Zrotation Yrotation Xrotation
		JOINT joint_2
		{
			OFFSET -0.108154 -3.018066 113.860962
			CHANNELS 3 Zrotation Yrotation Xrotation
			JOINT joint_3
			{
				OFFSET -1.139648 -3.876465 113.702026
				CHANNELS 3 Zrotation Yrotation Xrotation
				JOINT joint_4
				{
					OFFSET 13.593506 -8.582153 160.876953
					CHANNELS 3 Zrotation Yrotation Xrotation
					JOINT joint_5
					{
						OFFSET 26.480957 -11.565674 94.427979
						CHANNELS 3 Zrotation Yrotation Xrotation
						End Site
						{
							OFFSET 0.000000 0.000000 0.000000
						}
					}
				}
				JOINT joint_6
				{
					OFFSET 3.003662 -39.658691 88.713989
					CHANNELS 3 Zrotation Yrotation Xrotation
					JOINT joint_7
					{
						OFFSET -25.253906 -162.506348 -28.477051
						CHANNELS 3 Zrotation Yrotation Xrotation
						JOINT joint_8
						{
							OFFSET 23.083252 -8.502686 -295.281982
							CHANNELS 3 Zrotation Yrotation Xrotation
							JOINT joint_9
							{
								OFFSET 20.205566 -32.167908 -263.458008
								CHANNELS 3 Zrotation Yrotation Xrotation
								End Site
								{
									OFFSET 0.000000 0.000000 0.000000
								}
							}
						}
					}
				}
				JOINT joint_10
				{
					OFFSET 12.313232 30.012939 91.642944
					CHANNELS 3 Zrotation Yrotation Xrotation
					JOINT joint_11
					{
						OFFSET 31.960205 162.667969 -19.398926
						CHANNELS 3 Zrotation Yrotation Xrotation
						JOINT joint_12
						{
							OFFSET 51.325195 40.249023 -289.038086
							CHANNELS 3 Zrotation Yrotation Xrotation
							JOINT joint_13
							{
								OFFSET 70.170898 60.433594 -249.556030
								CHANNELS 3 Zrotation Yrotation Xrotation
								End Site
								{
									OFFSET 0.000000 0.000000 0.000000
								}
							}
						}
					}
				}
			}
		}
	}
	JOINT joint_14
	{
		OFFSET -15.093262 -91.803833 -113.326904
		CHANNELS 3 Zrotation Yrotation Xrotation
		JOINT joint_15
		{
			OFFSET 2.288818 -12.306763 -494.206055
			CHANNELS 3 Zrotation Yrotation Xrotation
			JOINT joint_16
			{
				OFFSET -54.691650 0.383423 -424.447006
				CHANNELS 3 Zrotation Yrotation Xrotation
				JOINT joint_17
				{
					OFFSET 202.154297 -21.791382 -80.181999
					CHANNELS 3 Zrotation Yrotation Xrotation
					End Site
					{
						OFFSET 0.000000 0.000000 0.000000
					}
				}
			}
		}
	}
	JOINT joint_18
	{
		OFFSET 10.704102 91.957275 -113.713013
		CHANNELS 3 Zrotation Yrotation Xrotation
		JOINT joint_19
		{
			OFFSET 0.427490 1.374878 -494.359924
			CHANNELS 3 Zrotation Yrotation Xrotation
			JOINT joint_20
			{
				OFFSET -53.071777 2.769531 -424.643028
				CHANNELS 3 Zrotation Yrotation Xrotation
				JOINT joint_21
				{
					OFFSET 200.264648 -28.253052 -82.862999
					CHANNELS 3 Zrotation Yrotation Xrotation
					End Site
					{
						OFFSET 0.000000 0.000000 0.000000
					}
				}
			}
		}
	}
}
MOTION
Frames: 13
Frame Time: 0.016667
-2436.871094 1236.509644 1121.099976 7.657171 12.133377 3.365302 4.408928 3.123737 2.050839 4.801786 -0.711079 -0.124452 4.940856 0.502445 0.228257 0.112061 -1.331559 -0.915658 0.000000 0.000000 0.000000 7.416289 5.052018 -3.919060 -9.093698 10.258542 -20.196541 -2.055689 -6.084590 24.872023 0.000000 0.000000 0.000000 0.585881 -0.866542 -0.050455 0.648943 -2.258221 9.578841 -1.044065 -1.552173 -1.523653 0.000000 0.000000 0.000000 -2.400470 5.450648 -7.564833 -1.155284 9.047841 1.889838 -1.050999 4.374902 0.127566 0.000000 0.000000 0.000000 -3.060298 -43.837790 1.768250 -6.294539 50.956964 -8.145007 -12.695893 2.799873 -4.061184 0.000000 0.000000 0.000000 
-2418.028320 1241.209473 1115.357056 7.302572 12.242466 3.370589 4.570160 3.275824 1.725221 4.887367 -0.766732 -0.073669 5.007523 0.579083 0.195635 0.114776 -1.186544 -0.854343 0.000000 0.000000 0.000000 7.282365 5.148227 -3.557751 -8.337594 10.283392 -20.247363 -1.544257 -5.664012 22.133961 0.000000 0.000000 0.000000 0.811339 -0.530963 -0.121989 0.201757 -2.135494 10.493002 -1.992653 -2.767386 -3.077383 0.000000 0.000000 0.000000 -2.077443 5.787699 -8.093735 -0.838118 10.317850 2.207043 -0.600679 4.258920 0.267431 0.000000 0.000000 0.000000 -3.807238 -43.465942 1.991627 -6.303488 45.696118 -8.431957 -12.193815 0.880332 -4.209136 0.000000 0.000000 0.000000 
-2397.293213 1246.521851 1108.483032 7.029004 12.028742 3.158697 4.682275 3.410240 1.690238 4.802370 -0.724831 -0.038214 4.885704 0.674157 0.239329 0.180289 -0.806303 -0.924807 0.000000 0.000000 0.000000 7.428897 5.169045 -3.326778 -7.524379 10.216387 -20.195852 -1.109880 -4.335854 19.319331 0.000000 0.000000 0.000000 1.020014 -0.073323 -0.012451 -0.208399 -1.648823 10.375649 -2.578826 -4.222977 -3.300149 0.000000 0.000000 0.000000 -2.029199 6.313195 -8.444139 -0.942053 12.113936 2.714237 -0.507063 4.324490 0.303465 0.000000 0.000000 0.000000 -4.465476 -41.196984 2.219194 -5.511121 38.374123 -8.452930 -9.657047 0.204475 -3.460212 0.000000 0.000000 0.000000 
-2375.155762 1252.220215 1100.941040 6.474691 11.417339 2.683346 4.915262 3.933100 1.975765 4.698394 -0.826099 -0.121757 4.748458 0.790686 0.310085 0.280407 -0.288510 -1.067157 0.000000 0.000000 0.000000 7.665240 5.069625 -3.096789 -6.696191 10.022537 -20.013079 -0.779788 -2.366528 16.270154 0.000000 0.000000 0.000000 1.176605 0.434156 0.178908 -0.554849 -0.975810 9.635557 -2.891265 -5.705151 -2.706152 0.000000 0.000000 0.000000 -1.943627 6.975629 -8.605892 -1.144848 14.518697 3.171121 -0.518418 4.642872 0.334900 0.000000 0.000000 0.000000 -4.745472 -37.320133 2.408556 -4.096825 29.509378 -8.136895 -6.553468 0.858790 -2.298582 0.000000 0.000000 0.000000 
-2352.826904 1257.446899 1093.713013 5.978284 10.439517 2.248831 5.150283 4.855296 2.256998 4.595682 -1.062591 -0.322914 4.617455 0.929673 0.309929 0.349318 0.228085 -1.106388 0.000000 0.000000 0.000000 7.675734 4.810086 -2.650989 -5.901417 9.652512 -19.635394 -0.576257 -0.345973 13.081948 0.000000 0.000000 0.000000 1.157091 0.732518 0.270638 -0.705986 -0.560189 8.982704 -2.955504 -6.586034 -2.033829 0.000000 0.000000 0.000000 -1.685020 7.417045 -8.607096 -1.155940 17.931270 3.289172 -0.435971 5.122334 0.417343 0.000000 0.000000 0.000000 -4.610250 -33.955806 2.166030 -2.861951 24.173653 -7.530567 -4.507768 1.108302 -1.530886 0.000000 0.000000 0.000000 
-2330.597900 1261.708740 1086.928955 6.344524 9.180720 2.487188 4.974356 5.747804 1.577999 4.317288 -1.156684 -0.236470 4.326805 1.085822 0.171738 0.350777 0.705119 -0.934051 0.000000 0.000000 0.000000 7.306168 4.353624 -1.824109 -5.030296 9.019206 -18.840918 -0.497364 1.642493 9.322887 0.000000 0.000000 0.000000 0.890731 0.709106 0.254732 -0.610309 -0.568971 8.705772 -2.774558 -6.612382 -1.563849 0.000000 0.000000 0.000000 -1.527093 7.510736 -8.894382 -1.127479 22.546285 3.149478 -0.351811 6.159179 0.556180 0.000000 0.000000 0.000000 -4.679720 -32.725903 0.935030 -2.418793 26.283996 -6.611045 -3.762878 -1.373978 -1.604454 0.000000 0.000000 0.000000 
-2308.175537 1265.497803 1080.458984 7.035858 7.687412 3.042483 4.605804 6.767612 0.348447 3.980879 -1.217300 0.034765 3.989849 1.210102 -0.048693 0.321138 1.186715 -0.659505 0.000000 0.000000 0.000000 6.656884 3.741517 -0.791730 -4.349611 8.218764 -17.830629 -0.690575 3.552157 5.315600 0.000000 0.000000 0.000000 0.448053 0.495970 0.165098 -0.352602 -0.799348 8.539748 -2.372890 -6.047551 -1.050585 0.000000 0.000000 0.000000 -1.360849 7.355963 -9.311458 -1.008158 27.898068 2.902323 -0.072289 7.931985 0.835070 0.000000 0.000000 0.000000 -4.797009 -32.290830 -0.813748 -2.267917 32.258105 -5.489933 -3.435410 -5.007027 -1.990794 0.000000 0.000000 0.000000 
-2285.895020 1269.437378 1074.889038 7.665370 6.430107 3.494940 4.293393 7.688910 -0.650064 3.666707 -1.307696 0.196944 3.670616 1.300335 -0.233467 0.299329 1.665633 -0.416377 0.000000 0.000000 0.000000 5.884017 3.179409 0.070346 -4.015703 7.504972 -17.036082 -1.014927 4.810553 2.304702 0.000000 0.000000 0.000000 -0.063069 0.209662 -0.106580 -0.008547 -1.126967 8.361833 -1.812776 -5.086162 -0.422356 0.000000 0.000000 0.000000 -0.993761 6.566870 -9.467547 -0.723028 33.494374 2.673087 0.792787 9.585267 1.282285 0.000000 0.000000 0.000000 -4.884991 -31.504854 -2.332701 -2.079573 36.988662 -4.576335 -3.019155 -7.845346 -2.239072 0.000000 0.000000 0.000000 
-2263.741943 1274.037842 1070.246948 8.454185 5.785772 3.946008 4.037754 8.106772 -1.445363 3.299226 -1.397639 0.282170 3.281320 1.412404 -0.324507 0.287540 2.171180 -0.204386 0.000000 0.000000 0.000000 5.006603 2.810386 0.578455 -3.861613 6.996079 -16.703669 -1.170972 5.302479 1.140485 0.000000 0.000000 0.000000 -0.645708 -0.149726 -0.760758 0.452521 -1.604297 8.245713 -1.038986 -3.548753 0.350259 0.000000 0.000000 0.000000 -0.581744 4.712263 -9.439715 -0.484854 39.474577 2.356061 2.309179 10.808617 1.884105 0.000000 0.000000 0.000000 -5.120241 -30.355167 -3.579909 -1.834618 38.963691 -4.085946 -2.397470 -9.972850 -2.317848 0.000000 0.000000 0.000000 
-2241.728760 1278.789917 1066.505981 9.373558 5.416431 4.482544 3.781557 8.339330 -2.287306 2.878007 -1.512919 0.387654 2.825719 1.548842 -0.371972 0.269565 2.668159 0.016375 0.000000 0.000000 0.000000 4.068654 2.551379 0.855572 -3.692015 6.560099 -16.480280 -1.148416 5.332868 1.033626 0.000000 0.000000 0.000000 -1.281849 -0.591861 -1.655731 0.965444 -2.203656 8.200148 -0.118796 -1.623889 1.316844 0.000000 0.000000 0.000000 -0.281332 2.167070 -9.428505 -0.341732 45.672176 1.905508 4.701647 11.810628 2.762446 0.000000 0.000000 0.000000 -5.453289 -29.076313 -4.755318 -1.631796 39.989819 -3.834404 -1.790502 -11.855863 -2.367786 0.000000 0.000000 0.000000 
-2220.225342 1282.782715 1064.171997 10.160083 4.928323 4.914515 3.544604 8.780286 -3.013894 2.419972 -1.605661 0.487329 2.331228 1.679618 -0.429961 0.257369 3.063798 0.184305 0.000000 0.000000 0.000000 3.315628 2.303960 0.982458 -3.403866 6.074412 -15.874103 -1.050297 5.047033 0.839776 0.000000 0.000000 0.000000 -1.855825 -1.017155 -2.365545 1.345851 -2.692652 7.968521 0.709821 -0.043844 2.511732 0.000000 0.000000 0.000000 -0.103455 -0.512735 -9.338980 -0.246025 51.484819 1.496303 8.280507 11.857251 4.014583 0.000000 0.000000 0.000000 -5.771554 -27.507834 -5.689741 -1.528332 40.614635 -3.677527 -1.335479 -13.383133 -2.421997 0.000000 0.000000 0.000000 
-2199.646240 1285.501953 1063.484985 10.808700 3.952703 5.191274 3.356875 9.865391 -3.562586 1.873567 -1.663671 0.595517 1.752079 1.823417 -0.527364 0.267386 3.310612 0.244332 0.000000 0.000000 0.000000 2.862769 2.054540 0.918384 -2.920609 5.468631 -14.480058 -0.900576 4.329349 0.041242 0.000000 0.000000 0.000000 -2.408576 -1.476077 -2.660841 1.556512 -3.028143 7.295767 1.440885 0.969520 4.130168 0.000000 0.000000 0.000000 -0.014876 -3.014317 -9.007043 -0.175170 56.983946 1.159417 13.656561 10.324641 5.966617 0.000000 0.000000 0.000000 -6.086686 -25.389920 -6.358789 -1.583091 41.062791 -3.592070 -1.112861 -14.478173 -2.499207 0.000000 0.000000 0.000000 
-2179.575928 1287.463135 1064.204956 11.328309 2.863228 5.386532 3.207020 11.157233 -4.037898 1.272917 -1.691999 0.729831 1.123810 1.943657 -0.634731 0.293901 3.465062 0.232138 0.000000 0.000000 0.000000 2.596168 1.813729 0.749626 -2.375374 4.826180 -12.768712 -0.706203 3.264642 -0.809258 0.000000 0.000000 0.000000 -2.921416 -1.921358 -2.735644 1.654205 -3.261678 6.411665 2.091247 1.691888 5.900689 0.000000 0.000000 0.000000 -0.266067 -5.743147 -8.534432 -0.298130 62.022439 0.551417 19.384313 7.769524 8.364861 0.000000 0.000000 0.000000 -6.365706 -22.995086 -6.832186 -1.726371 41.117387 -3.585376 -1.039404 -15.223369 -2.580687 0.000000 0.000000 0.000000 
